<mxfile host="app.diagrams.net" agent="Mozilla/5.0 (X11; Ubuntu; Linux x86_64; rv:143.0) Gecko/20100101 Firefox/143.0" version="28.2.5">
  <diagram name="Seite-1" id="tv3RCUC1lsHie5otSo7a">
    <mxGraphModel dx="815" dy="472" grid="1" gridSize="10" guides="1" tooltips="1" connect="1" arrows="1" fold="1" page="1" pageScale="1" pageWidth="1169" pageHeight="827" math="0" shadow="0">
      <root>
        <mxCell id="0" />
        <mxCell id="1" parent="0" />
        <mxCell id="RG_ibap2kgqLSs5oj8Kn-37" value="&lt;div&gt;&amp;lt;&amp;lt;interface&amp;gt;&amp;gt;&lt;/div&gt;&lt;div&gt;&lt;b&gt;ReplicFileAccessor&lt;/b&gt;&lt;/div&gt;&lt;div&gt;&lt;br&gt;&lt;/div&gt;" style="swimlane;fontStyle=0;align=center;verticalAlign=top;childLayout=stackLayout;horizontal=1;startSize=40;horizontalStack=0;resizeParent=1;resizeParentMax=0;resizeLast=0;collapsible=0;marginBottom=0;html=1;whiteSpace=wrap;" vertex="1" parent="1">
          <mxGeometry x="470" y="260" width="352" height="108" as="geometry" />
        </mxCell>
        <mxCell id="RG_ibap2kgqLSs5oj8Kn-38" value="" style="line;strokeWidth=1;fillColor=none;align=left;verticalAlign=middle;spacingTop=-1;spacingLeft=3;spacingRight=3;rotatable=0;labelPosition=right;points=[];portConstraint=eastwest;" vertex="1" parent="RG_ibap2kgqLSs5oj8Kn-37">
          <mxGeometry y="40" width="352" height="8" as="geometry" />
        </mxCell>
        <mxCell id="RG_ibap2kgqLSs5oj8Kn-39" value="createForReplic(UUID): File" style="text;html=1;strokeColor=none;fillColor=none;align=left;verticalAlign=middle;spacingLeft=4;spacingRight=4;overflow=hidden;rotatable=0;points=[[0,0.5],[1,0.5]];portConstraint=eastwest;whiteSpace=wrap;" vertex="1" parent="RG_ibap2kgqLSs5oj8Kn-37">
          <mxGeometry y="48" width="352" height="20" as="geometry" />
        </mxCell>
        <mxCell id="RG_ibap2kgqLSs5oj8Kn-40" value="getDataSize(UUID): long throws NotFoundException" style="text;html=1;strokeColor=none;fillColor=none;align=left;verticalAlign=middle;spacingLeft=4;spacingRight=4;overflow=hidden;rotatable=0;points=[[0,0.5],[1,0.5]];portConstraint=eastwest;whiteSpace=wrap;" vertex="1" parent="RG_ibap2kgqLSs5oj8Kn-37">
          <mxGeometry y="68" width="352" height="20" as="geometry" />
        </mxCell>
        <mxCell id="RG_ibap2kgqLSs5oj8Kn-41" value="getDataStream(UUID): InputStream throws NotFoundException" style="text;html=1;strokeColor=none;fillColor=none;align=left;verticalAlign=middle;spacingLeft=4;spacingRight=4;overflow=hidden;rotatable=0;points=[[0,0.5],[1,0.5]];portConstraint=eastwest;whiteSpace=wrap;" vertex="1" parent="RG_ibap2kgqLSs5oj8Kn-37">
          <mxGeometry y="88" width="352" height="20" as="geometry" />
        </mxCell>
        <mxCell id="RG_ibap2kgqLSs5oj8Kn-47" style="edgeStyle=orthogonalEdgeStyle;rounded=0;orthogonalLoop=1;jettySize=auto;html=1;endArrow=block;endFill=0;" edge="1" parent="1" source="RG_ibap2kgqLSs5oj8Kn-42" target="RG_ibap2kgqLSs5oj8Kn-37">
          <mxGeometry relative="1" as="geometry" />
        </mxCell>
        <mxCell id="RG_ibap2kgqLSs5oj8Kn-42" value="&lt;div&gt;&lt;b&gt;LocalReplicFileAccessor&lt;/b&gt;&lt;/div&gt;&lt;div&gt;&lt;br&gt;&lt;/div&gt;" style="swimlane;fontStyle=0;align=center;verticalAlign=top;childLayout=stackLayout;horizontal=1;startSize=27;horizontalStack=0;resizeParent=1;resizeParentMax=0;resizeLast=0;collapsible=0;marginBottom=0;html=1;whiteSpace=wrap;" vertex="1" parent="1">
          <mxGeometry x="470" y="413" width="352" height="55" as="geometry" />
        </mxCell>
        <mxCell id="RG_ibap2kgqLSs5oj8Kn-48" value="rootDirectory: String" style="text;html=1;strokeColor=none;fillColor=none;align=left;verticalAlign=middle;spacingLeft=4;spacingRight=4;overflow=hidden;rotatable=0;points=[[0,0.5],[1,0.5]];portConstraint=eastwest;whiteSpace=wrap;" vertex="1" parent="RG_ibap2kgqLSs5oj8Kn-42">
          <mxGeometry y="27" width="352" height="20" as="geometry" />
        </mxCell>
        <mxCell id="RG_ibap2kgqLSs5oj8Kn-43" value="" style="line;strokeWidth=1;fillColor=none;align=left;verticalAlign=middle;spacingTop=-1;spacingLeft=3;spacingRight=3;rotatable=0;labelPosition=right;points=[];portConstraint=eastwest;" vertex="1" parent="RG_ibap2kgqLSs5oj8Kn-42">
          <mxGeometry y="47" width="352" height="8" as="geometry" />
        </mxCell>
      </root>
    </mxGraphModel>
  </diagram>
</mxfile>
